<?xml version="1.0" standalone="no"?>
<!DOCTYPE svg PUBLIC "-//W3C//DTD SVG 20010904//EN"
 "http://www.w3.org/TR/2001/REC-SVG-20010904/DTD/svg10.dtd">
<svg version="1.0" xmlns="http://www.w3.org/2000/svg"
 width="512.000000pt" height="512.000000pt" viewBox="0 0 512.000000 512.000000"
 preserveAspectRatio="xMidYMid meet">
<metadata>
Created by potrace 1.14, written by Peter Selinger 2001-2017
</metadata>
<g transform="translate(0.000000,512.000000) scale(0.100000,-0.100000)"
fill="#000000" stroke="none">
<path d="M1037 3618 c-131 -339 -252 -650 -262 -673 -7 -16 -122 -311 -255
-655 -134 -344 -251 -646 -261 -672 l-19 -48 220 0 220 0 11 28 c12 29 50 135
118 324 l42 116 409 1 c305 0 411 -3 417 -12 5 -7 47 -112 94 -234 l84 -223
228 0 c126 0 226 3 224 8 -5 8 -381 943 -407 1012 -9 25 -31 79 -47 120 -46
111 -98 241 -152 378 -10 26 -51 128 -91 227 -39 99 -84 210 -98 247 l-27 68
-221 0 c-168 0 -223 -3 -227 -12z m252 -550 c12 -35 28 -79 36 -98 12 -31 54
-144 178 -480 28 -75 33 -96 22 -100 -11 -4 -510 -5 -537 -1 -7 1 6 38 161
464 58 157 108 284 112 282 3 -3 16 -33 28 -67z"/>
<path d="M2173 3617 c2 -7 37 -150 77 -317 40 -168 85 -359 101 -425 16 -66
56 -232 89 -370 32 -137 80 -335 105 -440 25 -104 48 -201 51 -215 3 -14 14
-61 25 -105 12 -44 23 -89 25 -100 2 -11 6 -32 10 -47 l6 -28 226 0 227 0 189
713 c215 813 217 820 221 815 2 -2 30 -106 64 -233 33 -126 68 -255 76 -285 9
-30 54 -199 100 -375 47 -176 104 -391 127 -477 l43 -158 220 0 221 0 52 213
c61 250 152 625 182 752 12 50 35 144 52 210 16 66 32 129 34 140 2 11 8 40
14 65 7 25 13 52 15 60 2 8 29 119 60 245 31 127 59 239 61 250 2 11 10 44 17
73 l14 52 -208 0 c-114 0 -210 -3 -212 -7 -3 -5 -14 -53 -26 -108 -12 -55 -30
-140 -41 -190 -11 -49 -23 -103 -26 -118 -2 -16 -13 -66 -24 -112 -11 -45 -56
-249 -100 -451 -45 -203 -83 -376 -85 -384 -2 -8 -4 -23 -4 -32 -1 -10 -5 -18
-9 -18 -7 0 -14 25 -38 135 -2 6 -12 44 -23 85 -11 41 -22 86 -25 100 -2 14
-7 32 -10 40 -3 8 -8 26 -10 40 -3 14 -33 133 -66 265 -34 132 -63 247 -65
255 -4 19 -103 412 -116 463 l-10 37 -248 0 -247 0 -43 -162 c-24 -90 -51
-192 -61 -228 -10 -36 -27 -101 -39 -145 -11 -44 -38 -145 -59 -225 -22 -80
-68 -254 -103 -387 -35 -134 -67 -243 -70 -243 -4 0 -10 17 -14 38 -5 20 -9
42 -11 47 -2 11 -134 612 -139 635 -2 8 -20 87 -39 175 -20 88 -39 176 -42
195 -3 19 -8 38 -10 41 -2 3 -6 21 -9 40 -3 19 -12 61 -20 94 -8 33 -17 75
-20 93 l-7 32 -215 0 c-171 0 -214 -3 -210 -13z"/>
</g>
</svg>
